<svg xmlns="http://www.w3.org/2000/svg" viewBox="0 0 300 400" preserveAspectRatio="xMidYMid slice">
    <rect width="300" height="400" fill="#2a313a"/>
    <g transform="translate(150, 200)">
        <g transform="rotate(-8) translate(0, -50)">
            <rect x="-70" y="-12" width="140" height="24" rx="2" fill="#1a1f26" stroke="#4a5668" stroke-width="1.5"/>
            <path d="M-70 -12 L-50 12 L-30 12 L-50 -12 Z" fill="#4a5668"/>
            <path d="M-30 -12 L-10 12 L10 12 L-10 -12 Z" fill="#4a5668"/>
            <path d="M10 -12 L30 12 L50 12 L30 -12 Z" fill="#4a5668"/>
            <path d="M50 -12 L70 12 L70 -4 L62 -12 Z" fill="#4a5668"/>
        </g>
        <rect x="-70" y="-30" width="140" height="80" rx="2" fill="#1a1f26" stroke="#4a5668" stroke-width="1.5"/>
        <line x1="-60" y1="-15" x2="30" y2="-15" stroke="#4a5668" stroke-width="1.5" stroke-linecap="round"/>
        <line x1="-60" y1="0" x2="40" y2="0" stroke="#4a5668" stroke-width="1.5" stroke-linecap="round"/>
        <line x1="-60" y1="15" x2="20" y2="15" stroke="#4a5668" stroke-width="1.5" stroke-linecap="round"/>
        <line x1="-60" y1="30" x2="35" y2="30" stroke="#4a5668" stroke-width="1.5" stroke-linecap="round"/>
    </g>
</svg>
